<svg width="24" height="24" viewBox="0 0 24 24" fill="none" xmlns="http://www.w3.org/2000/svg">
<path d="M10.6581 2.82612C11.2107 1.71991 12.7893 1.71991 13.3419 2.82611L15.3969 6.93976C15.5435 7.2332 15.8247 7.4361 16.1494 7.48271L20.7118 8.13766C21.9478 8.31509 22.4385 9.83677 21.5391 10.7029L18.2574 13.8631C18.0183 14.0934 17.909 14.4274 17.9658 14.7545L18.744 19.2366C18.9563 20.4595 17.6762 21.3964 16.5747 20.8243L12.4609 18.6877C12.172 18.5376 11.828 18.5376 11.5391 18.6877L7.42534 20.8243C6.32384 21.3964 5.04375 20.4595 5.25606 19.2366L6.0342 14.7545C6.09098 14.4274 5.98173 14.0934 5.74259 13.8631L2.46093 10.7029C1.5615 9.83677 2.05227 8.31509 3.28826 8.13766L7.85063 7.48271C8.17533 7.4361 8.45652 7.2332 8.60312 6.93976L10.6581 2.82612Z" stroke="#EAB308" stroke-width="2" stroke-linecap="round" stroke-linejoin="round"/>
</svg>
